<?xml version="1.0" encoding="UTF-8" standalone="no"?>
<svg
   width="1127.9894pt"
   height="838.8006pt"
   version="1.1"
   viewBox="0 0 1127.9894 838.8006"
   id="svg18"
   sodipodi:docname="joker.svg"
   inkscape:version="1.2.2 (b0a8486541, 2022-12-01)"
   xmlns:inkscape="http://www.inkscape.org/namespaces/inkscape"
   xmlns:sodipodi="http://sodipodi.sourceforge.net/DTD/sodipodi-0.dtd"
   xmlns="http://www.w3.org/2000/svg"
   xmlns:svg="http://www.w3.org/2000/svg">
  <defs
     id="defs22" />
  <sodipodi:namedview
     id="namedview20"
     pagecolor="#ffffff"
     bordercolor="#666666"
     borderopacity="1.0"
     inkscape:showpageshadow="2"
     inkscape:pageopacity="0.0"
     inkscape:pagecheckerboard="0"
     inkscape:deskcolor="#d1d1d1"
     inkscape:document-units="pt"
     showgrid="false"
     inkscape:zoom="0.20836625"
     inkscape:cx="74.388247"
     inkscape:cy="239.96209"
     inkscape:window-width="1920"
     inkscape:window-height="1011"
     inkscape:window-x="0"
     inkscape:window-y="32"
     inkscape:window-maximized="1"
     inkscape:current-layer="svg18" />
  <g
     id="g16"
     transform="translate(-35.999,-180.6)"
     style="fill:#5b0605;fill-opacity:1">
    <path
       d="m 168.12,663.36 c 0,-13.309 -3.9727,-26.172 -11.473,-37.164 -12.359,-18.059 -32.785,-28.848 -54.648,-28.848 -36.395,0 -66,29.605 -66,66 0,36.457 29.605,66.121 66,66.121 32.762,0 60.238,-23.449 65.305,-55.754 0.53906,-3.5625 0.81641,-6.9844 0.81641,-10.355 z"
       id="path2"
       style="fill:#5b0605;fill-opacity:1" />
    <path
       d="m 787.32,246.6 c 0,9.0117 1.7383,17.699 5.1719,25.801 10.402,24.492 34.332,40.32 60.949,40.32 36.383,0 66,-29.664 66,-66.121 0,-36.395 -29.617,-66 -66,-66 -29.352,0 -54.781,18.816 -63.277,46.812 -1.8828,6.2617 -2.8438,12.73 -2.8438,19.188 z"
       id="path4"
       style="fill:#5b0605;fill-opacity:1" />
    <path
       d="m 1098,597.36 c -21.852,0 -42.289,10.789 -54.66,28.859 -7.5,10.98 -11.461,23.832 -11.461,37.141 0,3.3594 0.2773,6.8633 0.8164,10.402 5.0625,32.27 32.52,55.715 65.293,55.715 36.383,0 66,-29.664 66,-66.121 0.012,-36.391 -29.605,-65.996 -65.988,-65.996 z"
       id="path6"
       style="fill:#5b0605;fill-opacity:1" />
    <path
       d="m 904.68,985.44 c 0,-17.27 -14.051,-31.32 -31.309,-31.32 h -546.73 c -17.27,0 -31.32,14.051 -31.32,31.32 v 2.6406 c 0,17.27 14.051,31.32 31.32,31.32 h 546.72 c 17.258,0 31.309,-14.051 31.309,-31.32 V 985.44 Z"
       id="path8"
       style="fill:#5b0605;fill-opacity:1" />
    <path
       d="m 425.03,574.84 c 92.137,42.516 151.29,148.56 175.04,258.55 15.926,-72.828 46.789,-141.02 87.422,-189.66 -54.637,-182.93 4.6445,-311.61 79.117,-371.33 l 0.69531,0.86328 c -2.6406,-8.5547 -3.9727,-17.496 -3.9727,-26.664 0,-4.1172 0.33594,-8.2422 0.91016,-12.324 -96.395,-10.512 -167.02,29.855 -209.81,66.613 -76.82,66 -126.98,172.78 -129.41,273.95 z"
       id="path10"
       style="fill:#5b0605;fill-opacity:1" />
    <path
       d="m 709.85,654.32 c -57.238,65.438 -94.848,172.55 -97.586,275.79 h 206.23 c 4.6914,-120.72 79.367,-224.7 189.66,-263.24 -0.035,-1.1641 -0.2656,-2.375 -0.2656,-3.5156 0,-13.789 3.1562,-27.215 9.1445,-39.445 -155.44002,-87.016 -252.70002,-32.043 -307.18002,30.418 z"
       id="path12"
       style="fill:#5b0605;fill-opacity:1" />
    <path
       d="m 182.98,623.91 c 5.9883,12.238 9.1445,25.656 9.1445,39.445 0,1.1523 -0.22656,2.3633 -0.27734,3.5156 110.29,38.543 184.98,142.52 189.66,263.24 h 206.17 c -3.4805,-133.6 -64.848,-288.98 -179.47,-336.55 -65.184,-27.215 -140.93,-16.918 -225.23,30.348 z"
       id="path14"
       style="fill:#5b0605;fill-opacity:1" />
  </g>
</svg>
